<svg id="visual" viewBox="0 0 1800 9999" width="1800" height="9999" xmlns="http://www.w3.org/2000/svg" xmlns:xlink="http://www.w3.org/1999/xlink" version="1.1"><rect x="0" y="0" width="1800" height="9999" fill="#002233"></rect><path d="M0 8688L42.8 8282C85.7 7876 171.3 7064 257 6815.2C342.7 6566.3 428.3 6880.7 514 7253.3C599.7 7626 685.3 8057 771.2 8177.8C857 8298.7 943 8109.3 1028.8 7738.3C1114.7 7367.3 1200.3 6814.7 1286 6778.7C1371.7 6742.7 1457.3 7223.3 1543 7455.7C1628.7 7688 1714.3 7672 1757.2 7664L1800 7656L1800 10000L1757.2 10000C1714.3 10000 1628.7 10000 1543 10000C1457.3 10000 1371.7 10000 1286 10000C1200.3 10000 1114.7 10000 1028.8 10000C943 10000 857 10000 771.2 10000C685.3 10000 599.7 10000 514 10000C428.3 10000 342.7 10000 257 10000C171.3 10000 85.7 10000 42.8 10000L0 10000Z" fill="#002233" stroke-linecap="round" stroke-linejoin="miter"></path></svg>