<svg width="67" height="117" viewBox="0 0 67 117" fill="none" xmlns="http://www.w3.org/2000/svg">
<path d="M64.679 2.31225C66.2263 3.85375 67 5.67889 67 7.78767C67 9.89644 66.2263 11.7195 64.679 13.2569L19.3419 58.4229L64.8337 103.743C66.2779 105.182 67 106.98 67 109.138C67 111.296 66.2263 113.146 64.679 114.688C63.1316 116.229 61.2996 117 59.1828 117C57.0661 117 55.2361 116.229 53.6929 114.688L1.70217 62.7391C1.08323 62.1225 0.64379 61.4545 0.383837 60.7352C0.123883 60.0158 -0.00403193 59.2451 9.4317e-05 58.4229C9.4317e-05 57.6008 0.130069 56.83 0.390023 56.1107C0.649976 55.3913 1.08736 54.7233 1.70217 54.1067L53.8476 2.1581C55.2918 0.719366 57.0723 -4.06876e-06 59.189 -4.06876e-06C61.3058 -4.06876e-06 63.1358 0.770747 64.679 2.31225Z" fill="#EDEDED"/>
</svg>
