<svg id="visual" viewBox="0 0 1800 9999" width="1800" height="9999" xmlns="http://www.w3.org/2000/svg" xmlns:xlink="http://www.w3.org/1999/xlink" version="1.1"><rect x="0" y="0" width="1800" height="9999" fill="#7b7b7b"></rect><path d="M0 4776L75 4866.7C150 4957.3 300 5138.7 450 5205.7C600 5272.7 750 5225.3 900 5169C1050 5112.7 1200 5047.3 1350 5016.5C1500 4985.7 1650 4989.3 1725 4991.2L1800 4993L1800 10000L1725 10000C1650 10000 1500 10000 1350 10000C1200 10000 1050 10000 900 10000C750 10000 600 10000 450 10000C300 10000 150 10000 75 10000L0 10000Z" fill="#E0E0E0" stroke-linecap="round" stroke-linejoin="miter"></path></svg>