<svg width="67" height="117" viewBox="0 0 67 117" fill="none" xmlns="http://www.w3.org/2000/svg">
<path d="M2.32101 114.688C0.773671 113.146 0 111.321 0 109.212C0 107.104 0.773671 105.28 2.32101 103.743L47.6581 58.5771L2.16628 13.2569C0.722092 11.8182 0 10.0198 0 7.86166C0 5.70356 0.773671 3.85375 2.32101 2.31225C3.86835 0.770751 5.70041 0 7.81717 0C9.93393 0 11.7639 0.770751 13.3071 2.31225L65.2978 54.2609C65.9168 54.8775 66.3562 55.5455 66.6162 56.2648C66.8761 56.9842 67.004 57.7549 66.9999 58.5771C66.9999 59.3992 66.8699 60.17 66.61 60.8893C66.35 61.6087 65.9126 62.2767 65.2978 62.8933L13.1524 114.842C11.7082 116.281 9.92774 117 7.81098 117C5.69422 117 3.86423 116.229 2.32101 114.688Z" fill="#EDEDED"/>
</svg>
